<svg xmlns="http://www.w3.org/2000/svg" version="1.1" xmlns:xlink="http://www.w3.org/1999/xlink" width="1000" height="1000"><metadata><rdf:RDF xmlns:rdf="http://www.w3.org/1999/02/22-rdf-syntax-ns#" xmlns:dc="http://purl.org/dc/elements/1.1/"><rdf:Description><dc:creator>RealFaviconGenerator</dc:creator><dc:source>https://realfavicongenerator.net</dc:source></rdf:Description></rdf:RDF></metadata><g clip-path="url(#SvgjsClipPath1005)"><rect width="1000" height="1000" fill="#ffffff"></rect><g transform="matrix(4.375,0,0,4.375,150,150)"><svg xmlns="http://www.w3.org/2000/svg" viewBox="0 0 160 160" width="160" height="160"><title>Fortis Control Systems — Icon Mark (Primary)</title><desc>Standalone icon mark — use for favicons, app icons, embossing, hard hat stickers</desc><polygon points="80,8 142.4,44 142.4,116 80,152 17.6,116 17.6,44" fill="none" stroke="#0D2B5E" stroke-width="4" stroke-linejoin="round"></polygon><polygon points="80,31 122.4,56 122.4,104 80,129 37.6,104 37.6,56" fill="none" stroke="#0D2B5E" stroke-width="1.4" stroke-linejoin="round" opacity="0.28"></polygon><line x1="80" y1="67" x2="80" y2="33" stroke="#0D2B5E" stroke-width="2.4" stroke-linecap="round"></line><line x1="80" y1="93" x2="80" y2="127" stroke="#0D2B5E" stroke-width="2.4" stroke-linecap="round"></line><line x1="93" y1="73.5" x2="120.4" y2="57.5" stroke="#0D2B5E" stroke-width="2.4" stroke-linecap="round"></line><line x1="93" y1="86.5" x2="120.4" y2="102.5" stroke="#0D2B5E" stroke-width="2.4" stroke-linecap="round"></line><line x1="67" y1="73.5" x2="39.6" y2="57.5" stroke="#0D2B5E" stroke-width="2.4" stroke-linecap="round"></line><line x1="67" y1="86.5" x2="39.6" y2="102.5" stroke="#0D2B5E" stroke-width="2.4" stroke-linecap="round"></line><circle cx="80" cy="31" r="5.5" fill="#0D2B5E"></circle><circle cx="122.4" cy="56" r="5.5" fill="#0D2B5E"></circle><circle cx="122.4" cy="104" r="5.5" fill="#0D2B5E"></circle><circle cx="80" cy="129" r="5.5" fill="#0D2B5E"></circle><circle cx="37.6" cy="104" r="5.5" fill="#0D2B5E"></circle><circle cx="37.6" cy="56" r="5.5" fill="#0D2B5E"></circle><circle cx="80" cy="80" r="15" fill="#0D2B5E"></circle><circle cx="80" cy="80" r="22.5" fill="none" stroke="#B87D0E" stroke-width="2.4" opacity="0.65"></circle></svg></g></g><defs><clipPath id="SvgjsClipPath1005"><rect width="1000" height="1000" x="0" y="0" rx="350" ry="350"></rect></clipPath></defs></svg>